<svg xmlns="http://www.w3.org/2000/svg" viewBox="0 0 262.55 117.33"><defs><style>.cls-1{fill:#fff;}.cls-2{fill:#1d1d1b;}.cls-2,.cls-3{fill-rule:evenodd;}.cls-3,.cls-4{fill:#e30613;}</style></defs><title>Sushi-Shop Темрюк</title><g id="Слой_2" data-name="Слой 2"><g id="Слой_1-2" data-name="Слой 1"><path class="cls-1" d="M257.5,55.52a16.33,16.33,0,0,0-11.41-4.44,16.05,16.05,0,0,0-10.76,3.76,15.66,15.66,0,0,0-1.61,1.65c-.23-.26-.46-.52-.71-.77a16.39,16.39,0,0,0-22.6-.28,12.66,12.66,0,0,0-6.1-3.69,16.72,16.72,0,0,0-4.69-.7,14.41,14.41,0,0,0-1.49.08l0-28A5.67,5.67,0,0,0,189,18.61l-6,4.47a5.66,5.66,0,0,0-2.28,4.55l0,24.65A16.92,16.92,0,0,0,174.43,51h-.07a16.7,16.7,0,0,0-2.47.18,24.65,24.65,0,0,0-4-17,22.45,22.45,0,0,0-4.81-5l7.7-2.56a5.67,5.67,0,0,0,3.67-3.87l1.1-4a5.65,5.65,0,0,0-1.46-5.52,5.71,5.71,0,0,0,1.14-3.42V5.66A5.67,5.67,0,0,0,166,1.26L146,17.42c-2.43-1.68-5.27-1.68-7.43-1.68h-2.87c-2.33,0-6.2,0-9,2.81a9.29,9.29,0,0,0-2.55,5.37c-.39.06-.78.13-1.16.21a43.41,43.41,0,0,0-5.45,1.53A22.13,22.13,0,0,0,102.83,41a10.1,10.1,0,0,0-1.64-.15,9.7,9.7,0,0,0-9.39,7,10.08,10.08,0,0,0-.23,4.42c-.48-.19-1-.37-1.51-.53a16.79,16.79,0,0,0-4.7-.7,14.21,14.21,0,0,0-1.48.08v-10l0-18a5.67,5.67,0,0,0-5.67-5.66,5.64,5.64,0,0,0-3.39,1.13l-6,4.47a5.69,5.69,0,0,0-2.28,4.55l0,25a16.7,16.7,0,0,0-6.84-1.46h-.07A15.93,15.93,0,0,0,52,53a5.65,5.65,0,0,0-4.17-1.84h-6a5.66,5.66,0,0,0-4,1.66,5.07,5.07,0,0,0-.49.55,4.11,4.11,0,0,0-.48-.55,5.67,5.67,0,0,0-4-1.66H26.73a5.65,5.65,0,0,0-4.28,2,16.55,16.55,0,0,0-7.94-2h-.07c-6.5,0-12,3.6-13.37,8.77a10,10,0,0,0,2.06,8.9L1.9,69.94a5.66,5.66,0,0,0-.72,7.69C3.8,81,8.75,83.15,14.09,83.15c4.68,0,8.7-1.6,11.32-4.45l.17.19c2.77,2.83,6.68,4.26,11.6,4.26h.41a15.8,15.8,0,0,0,10.71-3.6,17.62,17.62,0,0,0,11,3.6A16.52,16.52,0,0,0,67.78,81a5.62,5.62,0,0,0,4.46,2.18h6a5.65,5.65,0,0,0,4.7-2.51,5.72,5.72,0,0,0,4.7,2.5h5.82a5.76,5.76,0,0,0,2.35-.51,5.68,5.68,0,0,0,2.34.51l6,0h0a5.68,5.68,0,0,0,5.67-5.67V70.3a34.32,34.32,0,0,0,27.1,12.55,35,35,0,0,0,23-8.27,5.63,5.63,0,0,0,1.16,3c2.63,3.42,7.6,5.55,13,5.55h0a16.67,16.67,0,0,0,8.17-2,5.65,5.65,0,0,0,4.31,2h6a5.66,5.66,0,0,0,4.71-2.51,5.65,5.65,0,0,0,4.7,2.5h5.82a5.68,5.68,0,0,0,4.8-2.67,16.48,16.48,0,0,0,17.27.48l0,26.22a5.67,5.67,0,0,0,2.59,4.77c.42.27,1.56,1.17,2.4,1.82a30.58,30.58,0,0,0,4,2.88,5.66,5.66,0,0,0,8.34-5l.07-28.5a14.26,14.26,0,0,0,10.23-3.86,15.3,15.3,0,0,0,5.16-11.78A16.06,16.06,0,0,0,257.5,55.52Z"/><path class="cls-2" d="M125.71,56.72a64.32,64.32,0,0,0,10.76,1.19c10,.24,12.82-1.32,21.12-3.36-.43,11.49-9.19,20.52-21.13,20.29A20.57,20.57,0,0,1,116.34,54c2.49.41,6.14,2,9.37,2.68m4-30.45c4.64.89,9.78.24,14.44.17.14-5.54-2.32-5-7.3-5-4.57,0-7.17-.05-7.14,4.86m16.18,2.83c-4.52.44-12.59,8.64-16.15,10.33-.1-1.55.37-.94,1.76-2.12.88-.74,6.24-4.94,6.38-5.55,0-.14.14-.16.2-.24-4.4,1-6.79,2.94-8.31,1.88a27.44,27.44,0,0,0,5.62-2.08l4.06-1.67c2.41-1.31-2,1.26.55-.35l-10.31-.23a37.42,37.42,0,0,0-5.5.6A39.08,39.08,0,0,0,119.43,31c-10.73,3.68-13.79,13.79-10.75,24.82,7.78,28.28,48,28.39,56.36.74,4.8-15.85-3.64-26.52-19.15-27.47"/><path class="cls-2" d="M125.71,64.63s5.15.79,6.47,1.25a22.88,22.88,0,0,0,2.46.69l-.17-3.82-.69.12-.06,1.81a12.84,12.84,0,0,0-3.66-.73,23.29,23.29,0,0,0-4.35.68"/><path class="cls-2" d="M148,64.68s-5.15.8-6.47,1.25a22.18,22.18,0,0,1-2.47.7l.18-3.82.69.12.05,1.81a12.8,12.8,0,0,1,3.67-.74,23.29,23.29,0,0,1,4.35.68"/><polygon class="cls-2" points="132.96 71.08 141.03 70.4 142.12 68.75 133.22 70.34 132.96 71.08"/><polygon class="cls-3" points="129.75 38.46 138.08 31.52 130.46 34.01 129.77 33.4 140 29.3 129.54 29.07 129.71 26.27 144.16 26.23 169.57 5.67 169.58 9.91 148.54 25.96 170.11 17.33 169.01 21.3 144.03 29.61 129.6 39.68 129.75 38.46"/><path class="cls-4" d="M253.62,59.65a10.61,10.61,0,0,0-7.53-2.9A10.51,10.51,0,0,0,239,59.14q-3.54,3.07-3.55,9.44V73.8l0,33.4c1.4.91,4.9,3.88,6,4.47l.08-35.29a11.23,11.23,0,0,0,5.5,1.14,8.84,8.84,0,0,0,6.62-2.43,9.64,9.64,0,0,0,3.26-7.55A10.35,10.35,0,0,0,253.62,59.65ZM250.82,72A5.54,5.54,0,0,1,247,73.55,11.1,11.1,0,0,1,241.49,72l0-3.28c0-3.19-.13-4.59,1.19-5.94a5.12,5.12,0,0,1,4.07-1.72C252.89,61.15,254.25,68.75,250.82,72Z"/><path class="cls-4" d="M232.13,67.12A10,10,0,0,1,229,74.48a10.77,10.77,0,0,1-15,0,10.3,10.3,0,0,1,0-14.71,10.75,10.75,0,0,1,15,0,9.91,9.91,0,0,1,3.09,7.35m-4.5.07a6.15,6.15,0,0,0-1.69-4.46A5.85,5.85,0,0,0,221.55,61a5.93,5.93,0,0,0-4.37,1.72,6.07,6.07,0,0,0-1.71,4.48,6.14,6.14,0,0,0,1.67,4.47,6.5,6.5,0,0,0,8.81,0,6.1,6.1,0,0,0,1.68-4.47"/><path class="cls-3" d="M192.49,77.49V63.93c0-1.46,7.66-5.08,9,0,.26,1,.36,6.75.4,13.54h5.82c0-4,.06-8.4.06-12.37,0-3.64-.68-6.63-5.08-7.93-5.4-1.6-8.5,1.35-10.22,2l-.06-36-6,4.47.05,49.87Z"/><path class="cls-3" d="M178.34,63l3.73-3.15a10.18,10.18,0,0,0-7.66-3.18c-7.07,0-11.94,6.33-4.11,10.81a35.88,35.88,0,0,0,3.88,1.72c1.37.56,3,1.31,2.68,2.74a1.58,1.58,0,0,1-1.47,1.16c-2.08.26-4.62-1.4-6.19-2.25l-3.66,3.26c3.14,4.08,13,4.83,16.26,0a5.21,5.21,0,0,0,.38-4.78c-1.41-3.32-6.61-4.33-8.93-5.64-3.46-1.94.9-5.81,5.09-.66"/><path class="cls-3" d="M26.73,56.87c0,9.74-1.7,20.73,10.64,20.61,5.44.07,8.5-2.26,9.77-6.44,1-3.31.67-10.27.67-14.17h-6c0,5,1.43,16-4.63,15.87-5.65-.08-4.35-11.13-4.35-15.87Z"/><path class="cls-3" d="M18.39,63.12,22.1,60a10.14,10.14,0,0,0-7.61-3.16c-7,0-11.87,6.3-4.09,10.75a38.54,38.54,0,0,0,3.86,1.71c1.36.56,3,1.3,2.67,2.72a1.61,1.61,0,0,1-1.47,1.16c-2.06.25-4.59-1.39-6.15-2.25L5.67,74.17c3.12,4,12.91,4.79,16.16,0a5.18,5.18,0,0,0,.38-4.75c-1.41-3.29-6.57-4.3-8.88-5.59-3.44-1.93.9-5.78,5.06-.67"/><path class="cls-3" d="M105.05,51.47a4,4,0,0,0-3-4.86,4.1,4.1,0,0,0-4.84,2.75c-1.44,5.22,6.41,7.27,7.79,2.11"/><polygon class="cls-3" points="98.16 77.47 104.14 77.49 104.14 56.82 98.14 56.86 98.16 77.47"/><path class="cls-3" d="M63.58,63.11,67.29,60a10.11,10.11,0,0,0-7.61-3.16c-7,0-11.87,6.29-4.09,10.74a36.39,36.39,0,0,0,3.86,1.71c1.36.56,3,1.3,2.67,2.72a1.61,1.61,0,0,1-1.47,1.16c-2.06.25-4.59-1.39-6.15-2.25l-3.64,3.25c3.12,4,12.91,4.79,16.16,0a5.21,5.21,0,0,0,.38-4.75c-1.4-3.29-6.57-4.3-8.88-5.59-3.44-1.93.9-5.78,5.06-.67"/><path class="cls-3" d="M78.24,77.48V63.91c0-1.46,7.65-5.08,9,0,.25,1,.35,6.75.4,13.54h5.81c0-4,.06-8.4.07-12.37,0-3.64-.68-6.63-5.08-7.93-5.4-1.59-8.51,1.35-10.22,2l-.06-36-6,4.47.06,49.87Z"/></g></g></svg>